<svg width="140" height="30" viewBox="0 0 140 30" fill="none" xmlns="http://www.w3.org/2000/svg">
<path d="M28 8.70905L26.7593 12.9708L25.9672 12.1805L21.7839 16.1319L18.7806 18.9683L16.3251 21.2874L14.0129 18.9683L12.9229 17.8747L11.5739 16.5208L11.1695 16.1158L8.95471 13.8931L8.10371 14.7154L7.81883 14.9902L6.46975 16.296L5.11698 17.6036L3.72379 18.9505L3.70539 18.9683L1.71118 20.8949L0 22.5504L2.72392 18.9683L6.46975 14.0393L7.81883 12.2661L8.98595 10.7302L11.5739 13.3276L12.6803 14.4389L12.9229 14.6816L16.3747 18.1423L16.6798 17.8534L18.0289 16.5796L18.6281 16.0142L20.3723 14.3658L21.7839 13.0333L24.3718 10.5893L23.5778 9.79899L28 8.70905Z" fill="#2DFF34"/>
<path d="M6.46975 8.70905V14.0393L2.72392 18.9683H2.71289V8.70905H6.46975Z" fill="#FFCE5F"/>
<path d="M27.1545 16.0142C27.1545 23.726 20.6921 30 12.7446 30C8.69002 30 4.91844 28.3463 2.25154 25.5991C1.72587 25.0586 1.24431 24.477 0.810547 23.8562L2.46658 22.2561L5.12983 19.6855L5.87054 18.9683L6.46973 18.3904L7.81881 17.0845L8.11656 16.7973L8.82052 16.1159L8.93446 16.0035L8.9363 16.0053L8.99878 15.9446L11.5738 18.5277L12.6931 19.6516L16.3857 23.3568L18.639 21.2268L20.3851 19.5802L21.0321 18.9684L21.7838 18.2584L24.3827 15.8019L16.3378 26.5018L11.1804 21.3303L8.96566 19.1075L8.11652 19.9281L5.12979 22.8162L3.87444 24.0311C6.11864 26.3698 9.31122 27.7791 12.7446 27.7791C19.4294 27.7791 24.8662 22.5023 24.8662 16.0142L27.1545 16.0142Z" fill="#00B7FF"/>
<path d="M11.5739 5.60332V13.3276L8.98597 10.7302L7.81885 12.2662V5.60332H11.5739Z" fill="#FFCE5F"/>
<path d="M16.6797 3.08618V17.8534L16.3746 18.1424L12.9229 14.6816V3.08618H16.6797Z" fill="#FFCE5F"/>
<path d="M21.7838 0V13.0333L20.3722 14.3658L18.628 16.0142L18.0288 16.5797V0H21.7838Z" fill="#FFCE5F"/>
<path d="M43.7115 24.384C39.2235 24.384 35.8395 22.104 35.8395 18.168H40.2075C40.2075 20.16 41.7195 20.904 43.6635 20.904C45.2715 20.904 46.0875 20.256 46.0875 19.368C46.0875 17.904 44.3835 17.52 42.0075 16.8C39.0315 15.888 36.3675 14.736 36.3675 11.664C36.3675 7.92 39.2955 6.456 42.9915 6.456C46.9995 6.456 50.1435 8.568 50.2635 12.048H45.8955C45.7035 10.728 44.6475 9.936 42.9915 9.936C41.6955 9.936 40.7835 10.368 40.7835 11.352C40.7835 12.504 41.7435 12.888 43.9275 13.536C47.1675 14.496 50.5035 15.408 50.5035 18.96C50.5035 22.248 48.0075 24.384 43.7115 24.384ZM57.7397 21.36C58.0997 21.36 58.3157 21.336 58.7717 21.264V23.976C57.9557 24.168 57.2597 24.24 56.4917 24.24C53.8037 24.24 52.6517 23.016 52.6517 20.016V14.592H50.9477V11.712H52.6517V8.28H56.4917V11.712H58.6277V14.592H56.4917V19.92C56.4917 21.24 56.9957 21.36 57.7397 21.36ZM65.9355 24.408C61.8795 24.408 59.4075 21.768 59.4075 17.88C59.4075 14.016 61.8795 11.304 66.0075 11.304C70.0635 11.304 72.5355 13.944 72.5355 17.808C72.5355 21.696 70.0635 24.408 65.9355 24.408ZM65.9835 21.528C67.6875 21.528 68.6475 20.232 68.6475 17.856C68.6475 15.48 67.6875 14.184 65.9835 14.184C64.2555 14.184 63.2955 15.48 63.2955 17.856C63.2955 20.232 64.2555 21.528 65.9835 21.528ZM76.1475 24H71.8275L76.0515 17.736L72.3075 11.712H76.3875L78.3555 15.264H78.4035L80.3715 11.712H84.4515L80.7075 17.736L84.9315 24H80.6115L78.4035 20.208H78.3555L76.1475 24ZM94.2357 24H85.6677V6.84H93.9957C97.5717 6.84 99.4437 8.232 99.4437 11.16C99.4437 13.272 98.1957 14.328 96.7797 14.808V14.856C98.5797 15.168 100.116 16.368 100.116 18.936C100.116 22.584 97.7877 24 94.2357 24ZM89.9877 13.776H92.8677C94.0677 13.776 95.0277 13.488 95.0277 12.072C95.0277 10.656 94.0677 10.368 92.8677 10.368H89.9877V13.776ZM89.9877 20.472H92.9877C94.7877 20.472 95.6997 20.04 95.6997 18.432C95.6997 16.824 94.7877 16.416 92.9877 16.416H89.9877V20.472ZM104.811 24.384C102.411 24.384 100.899 22.968 100.899 20.784C100.899 18.24 102.987 17.256 105.603 16.704C106.947 16.416 108.843 16.224 108.843 15C108.843 14.328 108.315 13.896 107.211 13.896C105.795 13.896 105.147 14.472 105.027 15.672H101.379C101.499 13.32 103.227 11.304 107.379 11.304C110.715 11.304 112.563 12.648 112.563 16.416V21.168C112.563 21.816 112.635 22.104 113.019 22.104C113.115 22.104 113.187 22.104 113.331 22.08V23.904C112.563 24.048 111.771 24.12 111.219 24.12C109.683 24.12 109.107 23.544 108.915 22.512H108.867C108.003 23.592 106.587 24.384 104.811 24.384ZM106.419 21.744C107.955 21.744 108.843 20.448 108.843 19.032V18C108.339 18.192 107.763 18.336 106.755 18.576C105.339 18.912 104.835 19.512 104.835 20.376C104.835 21.312 105.435 21.744 106.419 21.744ZM120.158 24.384C115.862 24.384 114.182 22.32 114.086 19.92H117.686C117.806 21.144 118.622 21.744 120.086 21.744C121.214 21.744 121.718 21.384 121.718 20.688C121.718 19.584 120.494 19.464 118.718 19.056C116.558 18.552 114.326 17.688 114.326 15.192C114.326 12.888 116.246 11.328 119.702 11.328C123.638 11.328 125.174 13.32 125.294 15.48H121.694C121.574 14.496 121.046 13.968 119.774 13.968C118.718 13.968 118.262 14.352 118.262 14.952C118.262 15.768 118.982 15.816 120.83 16.248C123.254 16.824 125.654 17.544 125.654 20.4C125.654 22.968 123.71 24.384 120.158 24.384ZM139.083 18.312V18.888H130.251C130.251 20.592 131.451 21.528 132.891 21.528C134.259 21.528 134.835 20.904 135.075 20.28H138.987C138.291 22.776 136.251 24.408 132.795 24.408C128.811 24.408 126.411 21.696 126.411 17.856C126.411 14.256 128.667 11.304 132.795 11.304C136.971 11.304 139.083 13.776 139.083 18.312ZM130.275 16.512H135.219C135.219 14.928 134.283 14.088 132.795 14.088C131.331 14.088 130.371 14.928 130.275 16.512Z" fill="white"/>
</svg>
